<svg xmlns="http://www.w3.org/2000/svg" viewBox="0 0 829 504" width="829" height="504">
  <defs>
    <linearGradient id="bg" x1="0%" y1="0%" x2="100%" y2="100%">
      <stop offset="0%" style="stop-color:#1a3a5c"/>
      <stop offset="100%" style="stop-color:#0d1f33"/>
    </linearGradient>
    <linearGradient id="header" x1="0%" y1="0%" x2="100%" y2="0%">
      <stop offset="0%" style="stop-color:#234b73"/>
      <stop offset="100%" style="stop-color:#1a3a5c"/>
    </linearGradient>
    <clipPath id="photoClip">
      <rect x="48" y="140" width="120" height="150" rx="8" ry="8"/>
    </clipPath>
  </defs>

  <!-- Card background -->
  <rect width="829" height="504" rx="24" ry="24" fill="url(#bg)"/>

  <!-- Header band -->
  <rect width="829" height="90" rx="24" ry="24" fill="url(#header)"/>
  <rect y="60" width="829" height="30" fill="url(#header)"/>

  <!-- EU stars decoration -->
  <g transform="translate(48, 28)" fill="#f0c040" opacity="0.9">
    <circle cx="0" cy="0" r="3"/><circle cx="6" cy="-8" r="3"/><circle cx="15" cy="-11" r="3"/>
    <circle cx="24" cy="-8" r="3"/><circle cx="30" cy="0" r="3"/><circle cx="24" cy="8" r="3"/>
    <circle cx="15" cy="11" r="3"/><circle cx="6" cy="8" r="3"/>
  </g>

  <!-- Title -->
  <text x="100" y="52" fill="white" font-family="Arial, Helvetica, sans-serif" font-size="28" font-weight="bold" letter-spacing="1">PERSON IDENTIFICATION DATA</text>

  <!-- Issuing country -->
  <text x="100" y="78" fill="white" font-family="Arial, Helvetica, sans-serif" font-size="14" opacity="0.75">Issuing country:</text>
  <text x="235" y="78" fill="white" font-family="Arial, Helvetica, sans-serif" font-size="14" font-weight="bold">{{issuing_country}}</text>

  <!-- Photo frame -->
  <rect x="48" y="140" width="120" height="150" rx="8" ry="8" fill="white" opacity="0.15"/>
  <image id="picture" x="48" y="140" width="120" height="150" clip-path="url(#photoClip)" preserveAspectRatio="xMidYMid slice" href="{{picture}}"/>
  <text x="108" y="222" fill="white" font-family="Arial, Helvetica, sans-serif" font-size="12" text-anchor="middle" opacity="0.4">PHOTO</text>

  <!-- Name labels -->
  <text x="200" y="160" fill="white" font-family="Arial, Helvetica, sans-serif" font-size="13" opacity="0.65">First name</text>
  <text x="200" y="185" fill="white" font-family="Arial, Helvetica, sans-serif" font-size="24" font-weight="bold">{{given_name}}</text>

  <text x="200" y="225" fill="white" font-family="Arial, Helvetica, sans-serif" font-size="13" opacity="0.65">Last name</text>
  <text x="200" y="250" fill="white" font-family="Arial, Helvetica, sans-serif" font-size="24" font-weight="bold">{{family_name}}</text>

  <!-- Date of birth -->
  <text x="200" y="300" fill="white" font-family="Arial, Helvetica, sans-serif" font-size="13" opacity="0.65">Date of birth</text>
  <text x="200" y="325" fill="white" font-family="Arial, Helvetica, sans-serif" font-size="20">{{birth_date}}</text>

  <!-- Personal ID -->
  <text x="530" y="160" fill="white" font-family="Arial, Helvetica, sans-serif" font-size="13" opacity="0.65">Personal ID</text>
  <text x="530" y="185" fill="white" font-family="Arial, Helvetica, sans-serif" font-size="18">{{personal_administrative_number}}</text>

  <!-- Bottom bar -->
  <rect y="400" width="829" height="104" rx="0" ry="0" fill="white" opacity="0.06"/>
  <rect y="480" width="829" height="24" rx="24" ry="24" fill="white" opacity="0.06"/>

  <!-- Document number -->
  <text x="48" y="435" fill="white" font-family="Arial, Helvetica, sans-serif" font-size="12" opacity="0.6">Document number</text>
  <text x="48" y="460" fill="white" font-family="Arial, Helvetica, sans-serif" font-size="18" font-weight="bold">{{document_number}}</text>

  <!-- Expiry date -->
  <text x="680" y="435" fill="white" font-family="Arial, Helvetica, sans-serif" font-size="12" opacity="0.6" text-anchor="end">Valid until</text>
  <text x="680" y="460" fill="white" font-family="Arial, Helvetica, sans-serif" font-size="18" text-anchor="end">{{expiry_date}}</text>

  <!-- Decorative rings -->
  <circle cx="770" cy="445" r="30" fill="none" stroke="white" stroke-width="2" opacity="0.15"/>
  <circle cx="770" cy="445" r="20" fill="none" stroke="white" stroke-width="1.5" opacity="0.15"/>
</svg>
